<?xml version="1.0" encoding="utf-8"?>
<!-- Generator: Adobe Illustrator 26.3.1, SVG Export Plug-In . SVG Version: 6.00 Build 0)  -->
<svg version="1.1" id="speech_cloud" xmlns="http://www.w3.org/2000/svg" xmlns:xlink="http://www.w3.org/1999/xlink" x="0px"
	 y="0px" viewBox="0 0 900 536" style="enable-background:new 0 0 900 536;" xml:space="preserve">
<style type="text/css">
	.st0{fill:#FFFFFF;}
</style>
<path id="border" d="M70.6,433.3c1.9-3.5,3.4-7.5,5.9-10.4c4-4.6,8.4-9,13.2-12.8c13.6-11,27.7-21.4,41-32.6
	c22.2-18.8,44-38.1,66-57.2c3.9-3.4,5.6-7.3,6.2-12.5c3.2-27.8-1.3-54.8-7.1-81.7c-5.4-25.1-11.5-50.1-12.2-75.8
	c-0.3-10,1.6-20.2,3.5-30.1c1.3-7,3.9-13.8,6.7-20.3c8.5-20.3,24.5-30.6,45.9-33.6c20.3-2.8,40.2,1.2,60.2,3.1
	c10.2,0.9,20.5,1,30.8,1.9c5.6,0.5,11.1,2.4,16.7,2.9c19.6,1.9,39.1,4.1,58.7,4.9c20.1,0.8,40.2,0.1,60.4,0.2c2.6,0,5.2,0.8,7.8,0.9
	c5.8,0.1,11.6,0.3,17.3-0.2c31.2-2.8,62.3-5.8,93.5-8.9c18.4-1.9,36.7-5,55.1-6.1c30.1-1.7,59.6-9.5,89.9-8c21.2,1,41.4,5.2,59,17.6
	c19.2,13.4,28,32.8,28,55.6c0,14.9-1.8,29.9-3.5,44.8c-3.4,30,0.1,59.5,5.6,88.9c3.2,17.2,7,34.3,8.8,51.7
	c1.8,17.8-1.5,34.7-12,50.3c-10.6,15.8-22.7,29.5-39.7,38.4c-15.5,8.1-32.2,11.8-49.3,13.5c-31,3-61.9,0.7-92.8-1.4
	c-55.5-3.7-111.1-7.4-166.8-4.9c-46.4,2.1-92.6,6.8-139,10.2c-19.5,1.4-38.8,2-58.3-1.5c-17.3-3.1-30.1-11.7-39.6-26
	c-4.5-6.7-4.7-6.6-12.5-4.2c-46.8,14.4-93.5,28.8-140.2,43.2c-1.9,0.6-3.7,1-5.6,1.6C71.6,434.2,71.1,433.8,70.6,433.3L70.6,433.3z
	 M233.9,384.6l-0.9,2c4.8,4.7,9.3,9.9,14.6,13.9c12.5,9.5,27.2,11.9,42.4,12.5c34.5,1.4,68.5-3.3,102.6-7.4c22-2.7,44-6,66.1-6.9
	c70.9-2.9,141.5,4.1,212,10.8c27,2.6,54,3.8,81.1-1.2c32-5.9,51.2-24.6,60.2-54.8c5.4-18.1,3.1-36.7,0.6-55
	c-2.6-18.6-6.2-37.1-8.3-55.8c-3.2-28.3-0.3-56.6,2.3-84.8c1.5-16.2,2-32.3-6.3-47.3c-10.1-18.2-25.5-30.3-45.1-36.6
	c-24.5-7.9-49.6-7.4-74.7-3.5c-47.2,7.3-94.3,15.2-141.7,21.8c-37.2,5.2-74.7,6.9-112.1,2.9c-43.5-4.7-86.9-10.6-130.4-15.7
	c-15.5-1.8-31.1-3.8-46.7-4.2c-13.9-0.4-27.1,3.4-36.9,14.6c-9.1,10.4-14.5,22.4-15.8,36c-2,20.6,0.6,40.9,3.7,61.2
	c5.9,39.4,12.5,78.7,10.5,118.7c-0.1,1.2,0.2,2.5,0.3,3.7c0.5,0.4,1,0.7,1.6,1.1c2-2.9,4-5.8,6.3-9.2c4.2,9.4,3.7,13.3-2.6,18.6
	c-35.5,29.7-71.1,59.4-106.7,89.1c-2.6,2.2-5.2,4.5-7.8,6.7c2.7,0.6,4.8,0.5,6.8,0c27.1-7.6,54.2-15,81.2-22.9
	c19.8-5.8,39.4-12.1,59.1-18.3c3.3-1,5,0.1,5.7,3.8C247.8,380.6,240.9,382.6,233.9,384.6L233.9,384.6z"/>
<path id="inside" class="st0" d="M233.9,384.6c6.9-2,13.9-4.1,21-6.2c-0.7-3.7-2.4-4.8-5.7-3.8c-19.7,6.1-39.3,12.5-59.1,18.3
	c-27,7.9-54.1,15.3-81.2,22.9c-2,0.6-4.2,0.6-6.8,0c2.6-2.2,5.2-4.5,7.8-6.7c35.6-29.7,71.1-59.3,106.7-89c6.3-5.3,6.9-9.2,2.6-18.6
	c-2.3,3.4-4.3,6.3-6.3,9.2c-0.5-0.4-1-0.7-1.6-1.1c-0.1-1.2-0.3-2.5-0.3-3.7c2-40.1-4.6-79.4-10.5-118.7
	c-3.1-20.3-5.7-40.6-3.7-61.2c1.3-13.6,6.8-25.7,15.8-36c9.8-11.2,23-15,36.9-14.6c15.6,0.4,31.2,2.4,46.7,4.2
	c43.5,5.1,86.9,11,130.4,15.7c37.4,4.1,75,2.3,112.2-2.9c47.3-6.6,94.4-14.5,141.7-21.8c25.1-3.9,50.2-4.4,74.7,3.5
	c19.6,6.3,34.9,18.3,45.1,36.6c8.3,15,7.8,31.1,6.3,47.3c-2.6,28.2-5.5,56.5-2.3,84.8c2.1,18.7,5.7,37.2,8.3,55.8
	c2.6,18.4,4.8,36.9-0.6,55c-8.9,30.2-28.1,48.9-60.2,54.8c-27.2,5-54.1,3.8-81.1,1.2c-70.5-6.7-141-13.7-212-10.8
	c-22.1,0.9-44.1,4.2-66.1,6.9c-34.1,4.1-68.1,8.8-102.5,7.4c-15.2-0.6-30-3-42.4-12.5c-5.3-4-9.8-9.2-14.6-13.9L233.9,384.6
	L233.9,384.6z"/>
</svg>
